<?xml version="1.0" encoding="UTF-8" standalone="no"?>
<svg width="145px" height="42px" viewBox="0 0 145 42" version="1.1" xmlns="http://www.w3.org/2000/svg" xmlns:xlink="http://www.w3.org/1999/xlink">
<g id="Page-1" stroke="none" stroke-width="1" fill="none" fill-rule="evenodd">
<g id="Group-2" fill="#9B9B9B">
<g id="Research-Manager-2">
<g id="Group">
<path d="M2.65266045,20.508694 L14.1143507,20.508694 C14.2190373,18.9629216 14.8336007,17.5577239 15.7918433,16.4588284 L7.68748881,8.35423881 C6.60857463,9.12865299 5.12047388,9.07254851 4.10299254,8.18506343 C1.95339179,11.0157537 0.50313806,14.4031791 0,18.093694 C1.34627239,18.1863918 2.43772388,19.1990149 2.65266045,20.508694 L2.65266045,20.508694 Z"></path>
<path d="M39.3077687,21.4517351 L27.846,21.4517351 C27.7413134,22.9978209 27.1265149,24.4030187 26.1682724,25.5016007 L34.2732537,33.6062687 C35.3519328,32.8320896 36.8399552,32.8882724 37.8575149,33.7756791 C40.0070373,30.9449888 41.4573694,27.55725 41.9604291,23.8667351 C40.6138433,23.7740373 39.5226269,22.7614142 39.3077687,21.4517351 L39.3077687,21.4517351 Z"></path>
<path d="M7.68725373,33.6062687 L15.7922351,25.5018358 C14.8336791,24.4030187 14.2191157,22.9978209 14.1144291,21.4516567 L2.65266045,21.4516567 C2.43772388,22.7614142 1.34627239,23.7740373 0,23.8667351 C0.50313806,27.55725 1.95339179,30.9449888 4.1026791,33.7753657 C5.12086567,32.8882724 6.60865299,32.8320896 7.68725373,33.6062687 L7.68725373,33.6062687 Z"></path>
<path d="M34.2726269,8.35392537 L26.1682724,16.4589067 C27.1265149,17.5577239 27.7413134,18.963 27.846,20.5087724 L39.3076903,20.5087724 C39.5225485,19.1990149 40.6137649,18.1863918 41.9604291,18.0937724 C41.4573694,14.4032575 40.006959,11.0158321 37.8575149,8.18514179 C36.8393284,9.07247015 35.3512276,9.12865299 34.2726269,8.35392537 L34.2726269,8.35392537 Z"></path>
<path d="M33.6062687,34.2729403 L25.5015224,26.1682724 C24.4029403,27.1268284 22.9977425,27.7413918 21.4516567,27.846 L21.4516567,39.3077687 C22.7614142,39.5226269 23.7740373,40.6141567 23.8666567,41.9606642 C27.5571716,41.4575261 30.944597,40.0068806 33.7752873,37.8576716 C32.887959,36.8396418 32.8320896,35.351541 33.6062687,34.2729403 L33.6062687,34.2729403 Z"></path>
<path d="M18.0936157,41.9607425 C18.1863918,40.6141567 19.1989366,39.5227052 20.508694,39.307847 L20.508694,27.846 C18.9626082,27.7413918 17.5574104,27.1268284 16.4585149,26.1685858 L8.35392537,34.2729403 C9.12802612,35.3519328 9.07215672,36.8399552 8.18475,37.85775 C11.0154403,40.006959 14.4031791,41.4576045 18.0936157,41.9607425 L18.0936157,41.9607425 Z"></path>
<path d="M23.8667351,0 C23.7740373,1.34658582 22.7614925,2.43780224 21.4517351,2.65297388 L21.4517351,14.1144291 C22.9977425,14.2191157 24.4027052,14.8336007 25.5016007,15.7922351 L33.6062687,7.68725373 C32.8320896,6.60896642 32.8882724,5.12055224 33.7753657,4.10299254 C30.9446754,1.95339179 27.55725,0.503059701 23.8667351,0 L23.8667351,0 Z"></path>
<path d="M8.35423881,7.68748881 L16.4585149,15.7921567 C17.5574104,14.8336007 18.9626082,14.2190373 20.508694,14.1143507 L20.508694,2.65297388 C19.1990149,2.43780224 18.1863918,1.34689925 18.0936157,0 C14.4031791,0.503059701 11.0157537,1.95339179 8.18506343,4.10299254 C9.07247015,5.12055224 9.12833955,6.60920149 8.35423881,7.68748881 L8.35423881,7.68748881 Z"></path>
</g>
</g>
<path d="M73.5383596,9.61631573 L76.7974034,9.61631573 L76.7974034,32.9 L73.5383596,32.9 L73.5383596,22.1485152 L62.1485054,22.1485152 L62.1485054,32.9 L58.8894615,32.9 L58.8894615,9.61631573 L62.1485054,9.61631573 L62.1485054,19.3262504 L73.5383596,19.3262504 L73.5383596,9.61631573 Z M88.2880528,30.6489079 C89.0272211,30.6489079 89.6823831,30.6321088 90.2535586,30.5985103 C90.8247341,30.5649117 91.3007065,30.5033153 91.6814902,30.4137191 L91.6814902,25.2059687 C91.4574998,25.0939735 91.0935209,24.998779 90.5895425,24.9203824 C90.0855641,24.8419857 89.4751995,24.802788 88.7584303,24.802788 C88.2880504,24.802788 87.7896793,24.8363861 87.2633019,24.9035832 C86.7369245,24.9707803 86.2553524,25.1107722 85.8185711,25.3235631 C85.3817899,25.5363539 85.017811,25.8275371 84.7266235,26.1971212 C84.4354359,26.5667053 84.2898444,27.0538771 84.2898444,27.6586512 C84.2898444,28.7786031 84.6482236,29.556958 85.3649929,29.9937393 C86.0817621,30.4305205 87.0561057,30.6489079 88.2880528,30.6489079 Z M88.0192657,14.9920581 C89.2736118,14.9920581 90.3319505,15.1544487 91.1943135,15.4792348 C92.0566765,15.8040208 92.7510363,16.2631943 93.2774137,16.8567688 C93.8037911,17.4503433 94.1789694,18.1559024 94.4029598,18.9734673 C94.6269502,19.7910323 94.7389437,20.69258 94.7389437,21.6781377 L94.7389437,32.5976145 C94.4701552,32.6424126 94.0949769,32.704009 93.6133976,32.7824056 C93.1318183,32.8608023 92.5886497,32.9335981 91.9838757,33.0007952 C91.3791016,33.0679923 90.7239396,33.1295887 90.0183699,33.1855863 C89.3128002,33.2415839 88.6128407,33.2695823 87.9184705,33.2695823 C86.9329128,33.2695823 86.0257653,33.1687881 85.1970009,32.9671968 C84.3682365,32.7656054 83.651478,32.4464239 83.046704,32.0096427 C82.4419299,31.5728614 81.9715571,30.9960948 81.6355716,30.2793256 C81.299586,29.5625563 81.1315957,28.7002063 81.1315957,27.6922495 C81.1315957,26.7290909 81.3275844,25.9003389 81.7195675,25.2059687 C82.1115507,24.5115985 82.6435199,23.9516309 83.3154911,23.5260492 C83.9874622,23.1004675 84.7714168,22.7868856 85.6673784,22.5852943 C86.5633399,22.3837029 87.5040854,22.2829088 88.4896431,22.2829088 C88.8032297,22.2829088 89.1280109,22.2997078 89.4639964,22.3333063 C89.799982,22.3669049 90.1191635,22.4117023 90.4215506,22.4676999 C90.7239376,22.5236975 90.9871223,22.5740946 91.2111127,22.6188927 C91.4351031,22.6636907 91.591894,22.6972888 91.6814902,22.7196878 L91.6814902,21.8461297 C91.6814902,21.3309518 91.6254934,20.8213813 91.5134982,20.3174029 C91.401503,19.8134246 91.1999147,19.3654505 90.9087272,18.9734673 C90.6175397,18.5814842 90.2199627,18.2679023 89.7159844,18.0327124 C89.212006,17.7975225 88.5568439,17.6799293 87.7504786,17.6799293 C86.7201228,17.6799293 85.818575,17.7527251 85.0458082,17.8983189 C84.2730413,18.0439126 83.6962747,18.1951039 83.3154911,18.3518971 L82.9459088,15.7648211 C83.3490915,15.5856288 84.0210526,15.4120388 84.9618122,15.2440461 C85.9025718,15.0760533 86.9217128,14.9920581 88.0192657,14.9920581 Z M112.042115,24.198017 C112.042115,22.1597045 111.538144,20.5917953 110.530187,19.4942424 C109.52223,18.3966895 108.178308,17.8479213 106.49838,17.8479213 C105.557621,17.8479213 104.824063,17.8815193 104.297686,17.9487164 C103.771308,18.0159136 103.351333,18.094309 103.037746,18.1839052 L103.037746,29.2041771 C103.41853,29.5177636 103.967298,29.8201461 104.684067,30.1113336 C105.400836,30.4025211 106.184791,30.5481127 107.035954,30.5481127 C107.931916,30.5481127 108.699072,30.3857221 109.337444,30.060936 C109.975817,29.73615 110.496587,29.2881759 110.899769,28.7170004 C111.302952,28.145825 111.594135,27.4738639 111.773327,26.701097 C111.95252,25.9283302 112.042115,25.0939785 112.042115,24.198017 Z M115.301158,24.198017 C115.301158,25.5195603 115.127568,26.7402896 114.780383,27.8602415 C114.433198,28.9801934 113.923628,29.9433376 113.251657,30.749703 C112.579685,31.5560684 111.756533,32.1832321 110.782175,32.6312129 C109.807817,33.0791937 108.693481,33.3031807 107.439135,33.3031807 C106.431178,33.3031807 105.54083,33.1687885 104.768063,32.9 C103.995296,32.6312115 103.41853,32.3736265 103.037746,32.127237 L103.037746,39.1157022 L99.9130957,39.1157022 L99.9130957,15.9664114 C100.652264,15.7872191 101.57621,15.5912305 102.684963,15.3784396 C103.793715,15.1656487 105.076041,15.0592549 106.531979,15.0592549 C107.875921,15.0592549 109.085451,15.2720426 110.160605,15.6976243 C111.235759,16.1232061 112.154105,16.727971 112.915673,17.5119374 C113.67724,18.2959037 114.265206,19.2534483 114.679588,20.3845997 C115.09397,21.5157512 115.301158,22.7868776 115.301158,24.198017 Z M124.943896,33.2359839 C123.017579,33.1911858 121.651258,32.7768098 120.844893,31.9928435 C120.038527,31.2088771 119.635351,29.9881478 119.635351,28.330619 L119.635351,7.3652236 L122.760001,6.82764936 L122.760001,27.8266431 C122.760001,28.341821 122.804798,28.7673964 122.894394,29.1033819 C122.983991,29.4393675 123.129582,29.7081519 123.331174,29.9097433 C123.532765,30.1113346 123.801549,30.2625259 124.137535,30.3633216 C124.47352,30.4641172 124.887896,30.5481124 125.380675,30.6153095 L124.943896,33.2359839 Z M144.296569,24.1644186 C144.296569,25.553159 144.094981,26.8074863 143.691798,27.9274383 C143.288615,29.0473902 142.723048,30.0105344 141.995079,30.8168998 C141.26711,31.6232652 140.399161,32.2448292 139.391204,32.6816105 C138.383247,33.1183917 137.285711,33.3367791 136.098562,33.3367791 C134.911413,33.3367791 133.813876,33.1183917 132.80592,32.6816105 C131.797963,32.2448292 130.930013,31.6232652 130.202044,30.8168998 C129.474076,30.0105344 128.908508,29.0473902 128.505326,27.9274383 C128.102143,26.8074863 127.900555,25.553159 127.900555,24.1644186 C127.900555,22.7980772 128.102143,21.5493496 128.505326,20.4181981 C128.908508,19.2870467 129.474076,18.3183028 130.202044,17.5119374 C130.930013,16.705572 131.797963,16.084008 132.80592,15.6472267 C133.813876,15.2104455 134.911413,14.9920581 136.098562,14.9920581 C137.285711,14.9920581 138.383247,15.2104455 139.391204,15.6472267 C140.399161,16.084008 141.26711,16.705572 141.995079,17.5119374 C142.723048,18.3183028 143.288615,19.2870467 143.691798,20.4181981 C144.094981,21.5493496 144.296569,22.7980772 144.296569,24.1644186 Z M141.037525,24.1644186 C141.037525,22.1933032 140.595151,20.6309937 139.710389,19.4774432 C138.825627,18.3238927 137.621696,17.7471261 136.098562,17.7471261 C134.575427,17.7471261 133.371497,18.3238927 132.486735,19.4774432 C131.601973,20.6309937 131.159598,22.1933032 131.159598,24.1644186 C131.159598,26.135534 131.601973,27.6978435 132.486735,28.851394 C133.371497,30.0049445 134.575427,30.5817111 136.098562,30.5817111 C137.621696,30.5817111 138.825627,30.0049445 139.710389,28.851394 C140.595151,27.6978435 141.037525,26.135534 141.037525,24.1644186 Z" id="Haplo"></path>
</g>
</g>
</svg>